<svg width="186" height="185" viewBox="0 0 186 185" fill="none" xmlns="http://www.w3.org/2000/svg">
<path d="M175.933 95.3182C175.958 94.8335 176.087 94.4007 176.321 94.02C176.555 93.6439 176.866 93.3535 177.255 93.1487C177.648 92.9488 178.08 92.8607 178.551 92.8844C179.022 92.908 179.44 93.0388 179.807 93.2768C180.178 93.5197 180.46 93.8423 180.655 94.2446C180.85 94.6469 180.935 95.0904 180.911 95.5751C180.893 95.9386 180.815 96.2712 180.679 96.5727C180.542 96.8742 180.352 97.1263 180.108 97.329L179.796 96.9839C180.202 96.6212 180.419 96.1485 180.449 95.5659C180.468 95.1791 180.397 94.8227 180.236 94.4969C180.075 94.1711 179.845 93.9095 179.547 93.7123C179.248 93.5198 178.907 93.4139 178.525 93.3947C178.143 93.3755 177.794 93.4468 177.477 93.6084C177.16 93.7748 176.906 94.0119 176.712 94.32C176.519 94.628 176.413 94.9755 176.394 95.3623C176.364 95.9496 176.536 96.4418 176.908 96.839L176.563 97.1511C176.341 96.925 176.175 96.6526 176.065 96.334C175.959 96.0203 175.915 95.6817 175.933 95.3182Z" fill="white"/>
<path d="M179.511 105.468L179.756 103.763L175.349 103.131L175.421 102.625L179.828 103.257L180.073 101.553L180.516 101.616L179.955 105.531L179.511 105.468Z" fill="white"/>
<path d="M179.302 109.898L179.177 110.394L175.239 109.406L178.415 113.435L178.301 113.89L173.548 112.699L173.672 112.203L177.603 113.189L174.435 109.161L174.549 108.706L179.302 109.898Z" fill="white"/>
<path d="M175.21 123.784L170.622 122.062L170.802 121.584L174.97 123.148L175.801 120.933L174.287 120.305C173.662 120.045 173.17 119.801 172.812 119.572C172.457 119.349 172.215 119.118 172.085 118.88C171.959 118.644 171.948 118.388 172.052 118.113C172.096 117.995 172.157 117.878 172.235 117.763L172.653 117.964C172.608 118.032 172.572 118.101 172.546 118.171C172.473 118.363 172.492 118.547 172.6 118.722C172.707 118.902 172.909 119.082 173.205 119.263C173.505 119.446 173.916 119.647 174.436 119.867L176.378 120.67L175.21 123.784Z" fill="white"/>
<path d="M170.849 129.588C170.593 130.107 170.28 130.444 169.911 130.6C169.54 130.76 169.129 130.728 168.677 130.505C168.205 130.271 167.917 129.946 167.816 129.531C167.716 129.123 167.802 128.645 168.073 128.097L168.936 126.353L173.328 128.527L173.101 128.985L171.533 128.208L170.849 129.588ZM168.449 128.267C168.248 128.673 168.186 129.025 168.262 129.323C168.337 129.625 168.549 129.864 168.901 130.037C169.574 130.371 170.116 130.123 170.526 129.295L171.156 128.022L169.08 126.994L168.449 128.267Z" fill="white"/>
<path d="M167.015 140.078L162.89 137.433L163.166 137.003L165.069 138.223L166.725 135.643L164.822 134.422L165.101 133.986L169.226 136.632L168.946 137.068L167.108 135.888L165.452 138.469L167.291 139.648L167.015 140.078Z" fill="white"/>
<path d="M158.184 144.025C158.494 143.651 158.857 143.379 159.276 143.211C159.694 143.048 160.121 143.001 160.555 143.069C160.986 143.141 161.383 143.327 161.746 143.628C162.11 143.928 162.367 144.283 162.519 144.693C162.667 145.107 162.699 145.533 162.615 145.972C162.531 146.417 162.335 146.827 162.026 147.201C161.716 147.575 161.356 147.843 160.943 148.005C160.528 148.17 160.102 148.217 159.664 148.146C159.23 148.077 158.831 147.893 158.468 147.593C158.105 147.293 157.847 146.934 157.695 146.518C157.546 146.104 157.514 145.678 157.598 145.239C157.68 144.804 157.875 144.399 158.184 144.025ZM158.54 144.319C158.294 144.618 158.137 144.943 158.071 145.294C158.008 145.648 158.039 145.991 158.164 146.324C158.292 146.66 158.503 146.95 158.798 147.194C159.093 147.437 159.416 147.589 159.766 147.649C160.12 147.711 160.463 147.677 160.795 147.546C161.131 147.418 161.423 147.205 161.669 146.906C161.916 146.608 162.072 146.28 162.138 145.922C162.204 145.571 162.175 145.226 162.05 144.887C161.925 144.554 161.716 144.265 161.421 144.021C161.126 143.778 160.801 143.624 160.447 143.562C160.094 143.506 159.75 143.542 159.414 143.67C159.078 143.804 158.787 144.021 158.54 144.319Z" fill="white"/>
<path d="M150.419 159.269L149.374 154.701C149.3 154.376 149.295 154.088 149.361 153.837C149.427 153.594 149.554 153.389 149.744 153.223C149.884 153.099 150.064 153 150.284 152.926L150.451 153.338C150.281 153.4 150.144 153.477 150.039 153.569C149.796 153.782 149.714 154.087 149.79 154.486L149.842 154.757L153.824 156.283L153.408 156.647L149.936 155.279L150.809 158.927L150.419 159.269Z" fill="white"/>
<path d="M140.159 161.605L139.263 160.344L139.656 160.064L140.293 160.96L143.779 158.482L143.148 157.582L143.542 157.302L144.432 158.567L144.233 158.709C143.981 158.911 143.946 159.248 144.127 159.72C144.311 160.196 144.654 160.812 145.155 161.566L146.03 162.893L143.337 164.808L140.758 161.179L140.159 161.605ZM144.751 161.794C144.337 161.171 144.028 160.636 143.823 160.186C143.616 159.743 143.553 159.392 143.634 159.135L141.175 160.883L143.494 164.146L145.406 162.788L144.751 161.794Z" fill="white"/>
<path d="M134.636 164.563C135.061 164.328 135.499 164.209 135.95 164.206C136.399 164.208 136.813 164.321 137.192 164.544C137.566 164.769 137.867 165.088 138.095 165.501C138.323 165.913 138.432 166.338 138.422 166.775C138.409 167.214 138.282 167.622 138.043 168C137.801 168.383 137.468 168.692 137.043 168.927C136.618 169.161 136.184 169.278 135.741 169.277C135.294 169.279 134.881 169.166 134.5 168.939C134.121 168.716 133.818 168.398 133.59 167.986C133.362 167.573 133.254 167.145 133.265 166.702C133.279 166.263 133.406 165.854 133.645 165.477C133.881 165.102 134.211 164.797 134.636 164.563ZM134.859 164.967C134.52 165.154 134.255 165.399 134.065 165.701C133.877 166.008 133.779 166.338 133.773 166.694C133.768 167.053 133.859 167.4 134.044 167.736C134.228 168.071 134.473 168.33 134.777 168.514C135.083 168.702 135.415 168.796 135.772 168.797C136.132 168.801 136.481 168.709 136.82 168.522C137.159 168.335 137.425 168.087 137.617 167.779C137.807 167.477 137.907 167.145 137.915 166.783C137.922 166.428 137.832 166.083 137.648 165.747C137.463 165.412 137.217 165.151 136.911 164.963C136.603 164.781 136.269 164.688 135.91 164.684C135.548 164.686 135.198 164.78 134.859 164.967Z" fill="white"/>
<path d="M129.587 172.815L126.276 174.186L126.107 173.779L128.947 172.603L128.333 171.122L126.852 171.735C126.318 171.957 125.867 172.015 125.5 171.909C125.128 171.805 124.856 171.544 124.683 171.126C124.503 170.69 124.515 170.294 124.72 169.936C124.921 169.58 125.302 169.286 125.863 169.054L127.712 168.288L129.587 172.815ZM126.027 169.433C125.609 169.606 125.327 169.816 125.182 170.063C125.033 170.312 125.023 170.594 125.153 170.908C125.282 171.219 125.483 171.406 125.757 171.469C126.028 171.539 126.377 171.485 126.804 171.308L128.175 170.74L127.398 168.865L126.027 169.433Z" fill="white"/>
<path d="M117.238 177.355L115.867 172.65L116.358 172.507L116.991 174.678L119.934 173.82L119.302 171.649L119.799 171.505L121.17 176.209L120.673 176.354L120.062 174.257L117.118 175.115L117.729 177.212L117.238 177.355Z" fill="white"/>
<path d="M108.042 174.497C108.521 174.419 108.973 174.453 109.399 174.602C109.821 174.755 110.173 175 110.455 175.337C110.733 175.675 110.909 176.076 110.985 176.541C111.061 177.007 111.021 177.443 110.866 177.852C110.705 178.261 110.449 178.603 110.097 178.878C109.74 179.158 109.323 179.338 108.844 179.416C108.365 179.494 107.917 179.458 107.5 179.309C107.079 179.16 106.727 178.915 106.444 178.573C106.162 178.236 105.983 177.835 105.907 177.37C105.831 176.905 105.873 176.465 106.033 176.051C106.193 175.642 106.449 175.3 106.801 175.025C107.149 174.751 107.563 174.575 108.042 174.497ZM108.116 174.953C107.734 175.015 107.402 175.157 107.121 175.377C106.841 175.603 106.639 175.882 106.513 176.214C106.388 176.551 106.357 176.909 106.418 177.286C106.48 177.664 106.623 177.991 106.848 178.266C107.073 178.546 107.354 178.746 107.69 178.866C108.028 178.991 108.387 179.022 108.77 178.96C109.152 178.897 109.485 178.753 109.77 178.527C110.051 178.306 110.256 178.027 110.385 177.689C110.51 177.357 110.542 177.001 110.481 176.624C110.419 176.246 110.276 175.917 110.05 175.637C109.821 175.362 109.538 175.163 109.201 175.038C108.86 174.919 108.498 174.89 108.116 174.953Z" fill="white"/>
<path d="M91.5026 180.843L91.5594 175.943L92.0703 175.949L92.0188 180.401L95.1196 180.437L95.1711 175.985L95.6821 175.991L95.6253 180.891L91.5026 180.843Z" fill="white"/>
<path d="M83.2539 180.382C82.6333 180.305 82.1654 180.096 81.8502 179.756C81.535 179.416 81.4095 178.987 81.4738 178.468C81.5381 177.949 81.7646 177.564 82.1533 177.311C82.5414 177.063 83.0458 176.977 83.6664 177.054L84.9724 177.216L85.1626 175.681L85.6767 175.744L85.074 180.607L83.2539 180.382ZM83.6243 177.507C83.1426 177.448 82.7615 177.506 82.481 177.683C82.1999 177.864 82.0355 178.147 81.9878 178.532C81.939 178.925 82.0291 179.242 82.258 179.482C82.4863 179.727 82.8413 179.879 83.3229 179.939L84.615 180.099L84.9164 177.667L83.6243 177.507Z" fill="white"/>
<path d="M75.1219 174.109C75.594 174.222 75.9981 174.429 76.3341 174.73C76.6645 175.034 76.8947 175.396 77.0249 175.816C77.1505 176.234 77.1586 176.673 77.0492 177.131C76.9398 177.59 76.7345 177.977 76.4335 178.294C76.1278 178.61 75.7595 178.826 75.3284 178.944C74.8916 179.066 74.4372 179.07 73.9651 178.957C73.493 178.845 73.0935 178.639 72.7666 178.34C72.4351 178.04 72.2049 177.678 72.0758 177.254C71.9457 176.834 71.9353 176.395 72.0447 175.937C72.1541 175.478 72.3621 175.089 72.6688 174.769C72.9745 174.453 73.3428 174.236 73.7739 174.119C74.2005 174 74.6499 173.997 75.1219 174.109ZM75.0147 174.559C74.638 174.469 74.2775 174.472 73.9333 174.567C73.588 174.667 73.2933 174.846 73.0494 175.104C72.8043 175.367 72.6374 175.685 72.5485 176.057C72.4597 176.429 72.4658 176.786 72.5668 177.127C72.6667 177.472 72.8487 177.765 73.1128 178.005C73.3757 178.25 73.6956 178.418 74.0724 178.508C74.4491 178.598 74.8124 178.593 75.1622 178.494C75.5064 178.399 75.8033 178.22 76.0529 177.959C76.2969 177.7 76.4633 177.385 76.5521 177.013C76.641 176.64 76.6354 176.282 76.5355 175.936C76.4299 175.594 76.2457 175.301 75.9827 175.056C75.7141 174.814 75.3915 174.649 75.0147 174.559Z" fill="white"/>
<path d="M65.5091 171.433C65.966 171.597 66.3428 171.846 66.6394 172.18C66.9317 172.513 67.1195 172.895 67.2029 173.326C67.2804 173.76 67.2397 174.199 67.0807 174.643C66.9218 175.087 66.6753 175.45 66.3414 175.732C66.0015 176.016 65.6108 176.194 65.1694 176.264C64.728 176.333 64.2788 176.287 63.8219 176.123C63.4792 176 63.1833 175.83 62.9343 175.612C62.6852 175.394 62.499 175.139 62.3756 174.846L62.7963 174.648C63.0259 175.141 63.4153 175.487 63.9645 175.683C64.3291 175.814 64.6907 175.849 65.0493 175.789C65.4078 175.729 65.7247 175.585 65.9999 175.356C66.2707 175.126 66.4706 174.831 66.5996 174.471C66.7287 174.111 66.7617 173.756 66.6986 173.406C66.6311 173.054 66.4779 172.742 66.2389 172.468C66 172.194 65.6982 171.992 65.3335 171.861C64.78 171.663 64.2592 171.684 63.7711 171.926L63.5723 171.505C63.8531 171.358 64.1619 171.278 64.4987 171.265C64.8296 171.254 65.1664 171.31 65.5091 171.433Z" fill="white"/>
<path d="M54.6736 171.843L56.2308 172.578L58.1316 168.552L58.5937 168.77L56.6928 172.796L58.25 173.532L58.0587 173.937L54.4823 172.248L54.6736 171.843Z" fill="white"/>
<path d="M51.236 165.003C51.6511 165.254 51.9727 165.574 52.2007 165.963C52.4224 166.354 52.5311 166.769 52.5268 167.208C52.5186 167.645 52.3924 168.065 52.1482 168.469C51.904 168.872 51.5902 169.178 51.2067 169.388C50.8193 169.595 50.4023 169.689 49.9558 169.669C49.5029 169.652 49.0689 169.517 48.6538 169.265C48.2387 169.014 47.9211 168.696 47.701 168.312C47.4769 167.925 47.3682 167.51 47.3749 167.067C47.3791 166.627 47.5034 166.206 47.7475 165.803C47.9917 165.4 48.3088 165.093 48.6986 164.881C49.086 164.674 49.503 164.58 49.9495 164.6C50.392 164.617 50.8208 164.751 51.236 165.003ZM50.9966 165.398C50.6653 165.197 50.3212 165.09 49.9643 165.075C49.605 165.065 49.2697 165.146 48.9585 165.317C48.6448 165.493 48.3889 165.744 48.1906 166.071C47.9923 166.399 47.8893 166.74 47.8814 167.095C47.8711 167.455 47.9549 167.789 48.1329 168.099C48.3084 168.412 48.5618 168.67 48.8931 168.87C49.2244 169.071 49.5717 169.178 49.935 169.19C50.2919 169.205 50.6292 169.125 50.9469 168.952C51.2581 168.781 51.5129 168.531 51.7111 168.204C51.9094 167.877 52.0137 167.533 52.024 167.174C52.0279 166.816 51.9421 166.48 51.7665 166.167C51.5845 165.855 51.3279 165.598 50.9966 165.398Z" fill="white"/>
<path d="M39.53 156.9C39.8995 157.214 40.1639 157.581 40.3231 157.998C40.4788 158.413 40.5194 158.837 40.4449 159.27C40.3637 159.703 40.1704 160.099 39.8648 160.458C39.5592 160.817 39.2004 161.069 38.7883 161.215C38.3697 161.361 37.9415 161.389 37.5039 161.298C37.0663 161.207 36.6627 161.004 36.2932 160.69C36.0161 160.454 35.7996 160.19 35.6438 159.898C35.488 159.606 35.404 159.301 35.3918 158.984L35.8556 158.947C35.8958 159.49 36.138 159.951 36.5821 160.329C36.877 160.58 37.2027 160.741 37.5593 160.812C37.9159 160.882 38.2633 160.86 38.6015 160.743C38.9362 160.624 39.2276 160.418 39.4757 160.127C39.7239 159.835 39.8802 159.515 39.9449 159.166C40.0061 158.813 39.9733 158.467 39.8467 158.126C39.7201 157.785 39.5093 157.489 39.2144 157.238C38.7668 156.857 38.272 156.693 37.73 156.746L37.6929 156.282C38.0076 156.244 38.3248 156.278 38.6445 156.385C38.9577 156.492 39.2528 156.664 39.53 156.9Z" fill="white"/>
<path d="M29.2288 153.465L30.4286 154.7L33.622 151.598L33.9781 151.965L30.7846 155.067L31.9844 156.302L31.6631 156.614L28.9074 153.777L29.2288 153.465Z" fill="white"/>
<path d="M25.8695 150.614L25.5526 150.213L28.7374 147.695L23.6076 147.753L23.3167 147.385L27.1604 144.346L27.4773 144.747L24.298 147.261L29.4223 147.207L29.7132 147.575L25.8695 150.614Z" fill="white"/>
<path d="M17.4343 139.027L21.5877 136.427L21.8588 136.86L18.0852 139.223L19.3406 141.228L20.7587 140.406C21.3447 140.067 21.8372 139.825 22.2363 139.68C22.6289 139.533 22.9593 139.48 23.2275 139.522C23.4917 139.565 23.7018 139.712 23.8578 139.961C23.9246 140.068 23.9801 140.187 24.0242 140.319L23.6103 140.529C23.5841 140.452 23.5511 140.382 23.5115 140.318C23.4025 140.144 23.2454 140.047 23.0401 140.027C22.8323 140.003 22.5667 140.054 22.2433 140.179C21.9159 140.307 21.5068 140.511 21.0158 140.791L19.1986 141.846L17.4343 139.027Z" fill="white"/>
<path d="M15.4113 131.919C15.1565 131.399 15.0796 130.945 15.1807 130.558C15.2797 130.166 15.5555 129.86 16.008 129.638C16.4814 129.406 16.9137 129.375 17.3047 129.548C17.6895 129.717 18.0165 130.077 18.2857 130.626L19.1426 132.373L14.7433 134.531L14.5183 134.072L16.0895 133.301L15.4113 131.919ZM17.9211 130.82C17.7218 130.414 17.4806 130.15 17.1977 130.029C16.9128 129.903 16.5943 129.927 16.2424 130.1C15.5678 130.431 15.4339 131.011 15.8408 131.84L16.4666 133.116L18.5468 132.096L17.9211 130.82Z" fill="white"/>
<path d="M9.41889 122.476L14.0319 120.824L14.2042 121.305L12.0756 122.067L13.1095 124.954L15.2381 124.191L15.4127 124.679L10.7997 126.331L10.6251 125.844L12.6811 125.107L11.6473 122.221L9.5912 122.957L9.41889 122.476Z" fill="white"/>
<path d="M11.683 113.113C11.7903 113.586 11.783 114.04 11.6613 114.474C11.5341 114.905 11.3108 115.272 10.9917 115.574C10.6715 115.871 10.2816 116.072 9.82187 116.176C9.36219 116.28 8.92379 116.267 8.50667 116.137C8.08851 116.002 7.73144 115.767 7.43546 115.432C7.13389 115.094 6.92949 114.688 6.82224 114.214C6.71499 113.741 6.72325 113.292 6.84701 112.867C6.96975 112.437 7.19297 112.07 7.51668 111.767C7.83583 111.465 8.22525 111.262 8.68493 111.158C9.14461 111.054 9.58581 111.069 10.0085 111.203C10.4267 111.338 10.7837 111.573 11.0797 111.907C11.3747 112.238 11.5758 112.64 11.683 113.113ZM11.2324 113.215C11.1469 112.837 10.9853 112.515 10.7478 112.248C10.5058 111.982 10.215 111.797 9.8754 111.692C9.53127 111.588 9.17261 111.579 8.7994 111.663C8.42619 111.748 8.10899 111.911 7.84779 112.152C7.58204 112.394 7.39952 112.686 7.30021 113.029C7.19635 113.374 7.18722 113.734 7.27282 114.112C7.35841 114.49 7.52274 114.814 7.76582 115.084C8.00331 115.351 8.29463 115.539 8.63979 115.647C8.97936 115.752 9.33575 115.762 9.70895 115.678C10.0822 115.593 10.4016 115.43 10.6674 115.188C10.9276 114.942 11.1096 114.647 11.2134 114.303C11.3117 113.956 11.318 113.593 11.2324 113.215Z" fill="white"/>
<path d="M4.35621 97.7474L8.60868 99.7148C8.91191 99.855 9.14234 100.028 9.29997 100.233C9.45266 100.434 9.53678 100.66 9.55233 100.912C9.56384 101.098 9.53197 101.301 9.45672 101.521L9.02845 101.4C9.0833 101.228 9.1064 101.073 9.09776 100.933C9.0779 100.612 8.88696 100.359 8.52496 100.176L8.27878 100.051L4.63561 102.268L4.6015 101.716L7.8078 99.8064L4.38816 98.2644L4.35621 97.7474Z" fill="white"/>
<path d="M8.77036 87.9562L10.316 88.0218L10.2955 88.5044L9.19746 88.4578L9.01595 92.7309L10.1137 92.7846L10.0932 93.2671L8.54786 93.1945L8.55826 92.9497C8.55327 92.6272 8.30867 92.3926 7.82446 92.2459C7.33559 92.099 6.63949 91.9924 5.73616 91.926L4.15097 91.8026L4.29118 88.5016L8.73917 88.6905L8.77036 87.9562ZM5.80472 91.4665C6.54972 91.5215 7.16269 91.6059 7.64363 91.7198C8.1201 91.8288 8.43537 91.994 8.58945 92.2154L8.71749 89.2011L4.71709 89.0312L4.61757 91.374L5.80472 91.4665Z" fill="white"/>
<path d="M9.80213 81.7441C9.72768 82.2236 9.55396 82.643 9.28098 83.002C9.0041 83.3557 8.66172 83.6142 8.25383 83.7776C7.84666 83.9364 7.4102 83.9796 6.94444 83.9073C6.47869 83.835 6.07587 83.6614 5.736 83.3867C5.39683 83.1074 5.15126 82.7576 4.99927 82.3373C4.84339 81.9116 4.80267 81.459 4.87713 80.9795C4.95159 80.4999 5.12459 80.0852 5.39613 79.7353C5.6684 79.3809 6.01078 79.1224 6.42328 78.9597C6.83117 78.7964 7.26799 78.7509 7.73375 78.8232C8.1995 78.8955 8.60426 79.0717 8.94804 79.3517C9.2872 79.6311 9.53277 79.9809 9.68476 80.4012C9.83746 80.8168 9.87659 81.2645 9.80213 81.7441ZM9.3456 81.6732C9.40502 81.2904 9.3734 80.9313 9.25075 80.5959C9.12348 80.2597 8.92127 79.9804 8.64412 79.7579C8.36236 79.5347 8.03242 79.3937 7.65428 79.335C7.27614 79.2763 6.92129 79.311 6.58974 79.439C6.25356 79.5662 5.97618 79.7711 5.75759 80.0536C5.53439 80.3353 5.39308 80.6676 5.33366 81.0503C5.27424 81.4331 5.3078 81.7948 5.43436 82.1356C5.55701 82.4711 5.75886 82.7527 6.03991 82.9805C6.31706 83.203 6.6447 83.3436 7.02283 83.4023C7.40097 83.461 7.75813 83.4267 8.0943 83.2995C8.42657 83.1669 8.70431 82.9597 8.92751 82.6779C9.14682 82.3909 9.28618 82.0559 9.3456 81.6732Z" fill="white"/>
<path d="M6.32175 72.8319L7.25918 69.3726L7.68483 69.488L6.88106 72.454L8.42825 72.8733L8.84753 71.3261C8.99889 70.7676 9.22848 70.3753 9.53632 70.1493C9.84537 69.9187 10.2184 69.8627 10.6553 69.9811C11.1102 70.1044 11.4165 70.3566 11.5743 70.7378C11.7333 71.1145 11.7335 71.5956 11.5748 72.1812L11.0512 74.1135L6.32175 72.8319ZM11.1744 72.0799C11.2928 71.643 11.2985 71.2916 11.1917 71.0258C11.0861 70.7554 10.8689 70.5756 10.54 70.4865C10.2157 70.3987 9.94486 70.4437 9.7274 70.6217C9.50666 70.794 9.33587 71.103 9.21503 71.549L8.82688 72.9813L10.7862 73.5123L11.1744 72.0799Z" fill="white"/>
<path d="M10.3076 60.1618L14.8622 61.9689L14.6737 62.4439L12.5721 61.61L11.4414 64.4599L13.543 65.2937L13.352 65.7752L8.79738 63.9681L8.98842 63.4867L11.0185 64.2921L12.1492 61.4422L10.1191 60.6368L10.3076 60.1618Z" fill="white"/>
<path d="M18.0963 54.7929C17.865 55.2196 17.5605 55.5562 17.1827 55.8026C16.8031 56.0427 16.3937 56.1712 15.9547 56.188C15.5178 56.2007 15.0922 56.0947 14.6779 55.8701C14.2635 55.6455 13.9424 55.3467 13.7146 54.9738C13.489 54.5967 13.3753 54.1847 13.3733 53.7378C13.3695 53.2845 13.4833 52.8446 13.7146 52.4179C13.9458 51.9912 14.2481 51.6587 14.6214 51.4205C14.997 51.1782 15.4063 51.0497 15.8495 51.0351C16.2885 51.0183 16.7153 51.1222 17.1296 51.3468C17.544 51.5715 17.866 51.8734 18.0957 52.2527C18.3213 52.6297 18.435 53.0417 18.437 53.4887C18.4411 53.9315 18.3275 54.3662 18.0963 54.7929ZM17.6901 54.5728C17.8747 54.2322 17.9656 53.8834 17.9628 53.5262C17.9558 53.1668 17.8593 52.8358 17.673 52.5331C17.4826 52.2282 17.2192 51.9846 16.8828 51.8022C16.5464 51.6199 16.2005 51.5333 15.8452 51.5424C15.4858 51.5493 15.1557 51.6491 14.8549 51.8417C14.55 52.0321 14.3053 52.2975 14.1207 52.638C13.9361 52.9786 13.8462 53.3306 13.8509 53.6941C13.8537 54.0512 13.9492 54.3843 14.1373 54.6933C14.3236 54.996 14.5849 55.2385 14.9214 55.4209C15.2578 55.6032 15.6057 55.6909 15.9651 55.684C16.3226 55.6708 16.6538 55.569 16.9587 55.3786C17.2617 55.1819 17.5055 54.9133 17.6901 54.5728Z" fill="white"/>
<path d="M23.0677 37.9205L26.9114 40.9595L26.5945 41.3604L23.1022 38.5992L21.1789 41.0317L24.6712 43.7929L24.3543 44.1937L20.5106 41.1547L23.0677 37.9205Z" fill="white"/>
<path d="M28.3094 31.8136C28.7484 31.3682 29.1987 31.1241 29.6604 31.0811C30.122 31.0382 30.539 31.2001 30.9113 31.567C31.2835 31.9339 31.4515 32.3485 31.4153 32.8107C31.3757 33.2697 31.1365 33.7219 30.6975 34.1673L29.7737 35.1045L30.8756 36.1905L30.5119 36.5594L27.022 33.1198L28.3094 31.8136ZM30.3636 33.8578C30.7043 33.5122 30.8899 33.1742 30.9205 32.844C30.9478 32.5105 30.8235 32.2078 30.5476 31.9359C30.2651 31.6575 29.959 31.536 29.6293 31.5714C29.2962 31.6035 28.9593 31.7924 28.6187 32.1381L27.7047 33.0654L29.4497 34.7852L30.3636 33.8578Z" fill="white"/>
<path d="M38.0521 29.3069C37.6758 29.6135 37.2661 29.8088 36.823 29.8929C36.3805 29.9704 35.9531 29.9334 35.5407 29.7818C35.1319 29.6272 34.7787 29.3672 34.481 29.0018C34.1833 28.6364 34.0001 28.2379 33.9314 27.8063C33.8664 27.3717 33.918 26.9475 34.0863 26.5334C34.2554 26.1129 34.528 25.7493 34.9043 25.4428C35.2806 25.1363 35.6867 24.9439 36.1225 24.8657C36.562 24.7846 36.9895 24.8216 37.4048 24.9768C37.8172 25.1284 38.1723 25.3869 38.47 25.7523C38.7676 26.1178 38.9505 26.5196 39.0185 26.9577C39.0836 27.3923 39.0319 27.8165 38.8636 28.2305C38.6989 28.6416 38.4284 29.0004 38.0521 29.3069ZM37.7603 28.9487C38.0606 28.7041 38.2774 28.4161 38.4108 28.0848C38.5412 27.7498 38.5779 27.4069 38.5209 27.0561C38.4609 26.7017 38.31 26.3762 38.0684 26.0795C37.8267 25.7828 37.5398 25.5711 37.2078 25.4443C36.8728 25.3139 36.5296 25.2805 36.1782 25.3441C35.8237 25.404 35.4964 25.5564 35.1961 25.801C34.8958 26.0456 34.6786 26.3369 34.5446 26.6748C34.4112 27.0061 34.3727 27.3505 34.4291 27.7079C34.4861 28.0587 34.6355 28.3824 34.8772 28.6791C35.1189 28.9758 35.4072 29.1893 35.7422 29.3197C36.0778 29.4436 36.4228 29.4755 36.7772 29.4155C37.1323 29.349 37.46 29.1934 37.7603 28.9487Z" fill="white"/>
<path d="M46.311 23.0503C45.9025 23.3123 45.4753 23.4588 45.0294 23.4897C44.5875 23.5182 44.1702 23.4338 43.7776 23.2366C43.3864 23.0329 43.0635 22.7327 42.8091 22.3359C42.5546 21.9392 42.4176 21.5225 42.3981 21.086C42.3801 20.6429 42.4781 20.2252 42.6921 19.8329C42.9062 19.4406 43.2175 19.1134 43.626 18.8513C43.9324 18.6548 44.2479 18.5245 44.5727 18.4603C44.8975 18.3961 45.2132 18.4043 45.5199 18.4848L45.4206 18.9394C44.8893 18.8199 44.3782 18.9177 43.8872 19.2327C43.5612 19.4418 43.3125 19.7066 43.1411 20.0272C42.9698 20.3478 42.8906 20.6869 42.9037 21.0444C42.9208 21.3994 43.0326 21.7379 43.2392 22.06C43.4458 22.3821 43.7069 22.6249 44.0224 22.7885C44.3419 22.9494 44.6831 23.0189 45.0459 22.9968C45.4088 22.9748 45.7532 22.8592 46.0792 22.65C46.5742 22.3326 46.8749 21.9068 46.9814 21.3728L47.436 21.4721C47.3813 21.7844 47.2564 22.078 47.0612 22.3528C46.8675 22.6213 46.6174 22.8537 46.311 23.0503Z" fill="white"/>
<path d="M52.2715 14.3435L50.7427 15.136L52.7915 19.0885L52.3378 19.3237L50.289 15.3711L48.7602 16.1636L48.5541 15.7659L52.0654 13.9458L52.2715 14.3435Z" fill="white"/>
<path d="M59.9426 15.6652C59.4908 15.8425 59.0411 15.9037 58.5934 15.8487C58.1484 15.7878 57.7526 15.6222 57.406 15.3522C57.0637 15.0804 56.8065 14.7252 56.6343 14.2864C56.4621 13.8477 56.4091 13.4123 56.4752 12.9803C56.5456 12.5466 56.7241 12.1582 57.0105 11.8152C57.2997 11.4661 57.6701 11.2029 58.1219 11.0256C58.5737 10.8483 59.0191 10.7889 59.4581 10.8472C59.9014 10.9038 60.2972 11.0693 60.6455 11.3437C60.9921 11.6138 61.2515 11.9682 61.4237 12.4069C61.5959 12.8457 61.6476 13.2841 61.5789 13.7221C61.5085 14.1558 61.33 14.5442 61.0435 14.8872C60.7614 15.2286 60.3944 15.4879 59.9426 15.6652ZM59.7738 15.2351C60.1344 15.0936 60.4287 14.8854 60.6567 14.6104C60.8829 14.3311 61.0224 14.0157 61.0749 13.6642C61.1258 13.3084 61.0813 12.9524 60.9415 12.5962C60.8017 12.2399 60.593 11.9509 60.3154 11.7289C60.0361 11.5027 59.7194 11.3663 59.3653 11.3197C59.0095 11.2689 58.6513 11.3142 58.2907 11.4557C57.9301 11.5972 57.6345 11.8084 57.4039 12.0894C57.1759 12.3644 57.0344 12.6806 56.9791 13.0382C56.9266 13.3897 56.9702 13.7435 57.11 14.0998C57.2498 14.456 57.4593 14.7472 57.7386 14.9735C58.0206 15.1937 58.3394 15.3293 58.6953 15.3801C59.0538 15.4249 59.4133 15.3766 59.7738 15.2351Z" fill="white"/>
<path d="M73.3248 11.2937C72.8503 11.3955 72.3989 11.3826 71.9705 11.255C71.5468 11.1263 71.1858 10.9007 70.8874 10.5781C70.5927 10.25 70.3959 9.85552 70.297 9.39468C70.1981 8.93384 70.2162 8.49561 70.3514 8.08001C70.4901 7.65886 70.7286 7.30222 71.0668 7.01008C71.405 6.71795 71.8114 6.52097 72.286 6.41914C72.6419 6.34277 72.9831 6.33159 73.3097 6.3856C73.6363 6.43961 73.929 6.55816 74.1879 6.74126L73.9352 7.13197C73.4798 6.83354 72.9669 6.74553 72.3966 6.86792C72.0179 6.94918 71.692 7.1098 71.4189 7.34977C71.1459 7.58973 70.9527 7.87938 70.8393 8.21871C70.7306 8.55706 70.7163 8.91331 70.7966 9.28746C70.8769 9.66161 71.0361 9.98066 71.2741 10.2446C71.5166 10.5076 71.8117 10.6924 72.1591 10.7992C72.5066 10.906 72.8697 10.9188 73.2484 10.8375C73.8233 10.7142 74.2545 10.4212 74.5418 9.95862L74.9325 10.2113C74.7716 10.4844 74.5515 10.7154 74.2722 10.9042C73.9965 11.0875 73.6807 11.2173 73.3248 11.2937Z" fill="white"/>
<path d="M82.5437 5.15355L80.8332 5.35222L81.3468 9.77449L80.8393 9.83345L80.3256 5.41118L78.6151 5.60985L78.5634 5.16484L82.492 4.70854L82.5437 5.15355Z" fill="white"/>
<path d="M86.6061 4.22262L87.1171 4.21473L87.1797 8.27425L90.2527 4.16631L90.7216 4.15907L90.7973 9.05849L90.2863 9.06638L90.2238 5.01386L87.1507 9.1148L86.6818 9.12204L86.6061 4.22262Z" fill="white"/>
<path d="M101.704 4.60955L101.213 9.48495L100.705 9.43381L101.15 5.00416L98.7962 4.76737L98.5766 6.39155C98.4856 7.06248 98.3753 7.60013 98.2455 8.00451C98.1208 8.40471 97.96 8.69808 97.763 8.88464C97.5665 9.06655 97.3219 9.1428 97.0294 9.11337C96.904 9.10076 96.7757 9.07143 96.6443 9.02539L96.7323 8.56991C96.8094 8.59642 96.8851 8.61342 96.9594 8.62089C97.1637 8.64144 97.3367 8.57676 97.4784 8.42686C97.6247 8.27742 97.7475 8.03649 97.8466 7.70408C97.9461 7.36701 98.0358 6.91874 98.1155 6.35924L98.3953 4.27679L101.704 4.60955Z" fill="white"/>
<path d="M108.043 7.25236C108.61 7.36729 109.017 7.58294 109.262 7.89931C109.512 8.2166 109.587 8.62223 109.487 9.11619C109.382 9.63302 109.142 9.99392 108.768 10.1989C108.398 10.4002 107.914 10.4402 107.315 10.3188L105.408 9.93227L106.381 5.12988L106.882 5.23137L106.534 6.94651L108.043 7.25236ZM107.383 9.91121C107.827 10.0011 108.183 9.97089 108.451 9.82057C108.725 9.67116 108.9 9.40437 108.978 9.02018C109.127 8.28381 108.749 7.82387 107.843 7.64036L106.451 7.35814L105.99 9.62899L107.383 9.91121Z" fill="white"/>
<path d="M119.509 8.32827L117.997 12.989L117.511 12.8312L118.209 10.6806L115.292 9.7342L114.595 11.8848L114.102 11.7249L115.614 7.06418L116.107 7.22409L115.433 9.30142L118.349 10.2479L119.023 8.17053L119.509 8.32827Z" fill="white"/>
<path d="M125.435 15.7772C124.995 15.5732 124.64 15.2905 124.37 14.929C124.106 14.5653 123.952 14.1648 123.908 13.7277C123.868 13.2925 123.947 12.8611 124.145 12.4334C124.343 12.0057 124.621 11.6664 124.979 11.4156C125.341 11.1667 125.745 11.0272 126.191 10.9972C126.643 10.9648 127.089 11.0506 127.53 11.2546C127.97 11.4585 128.321 11.7393 128.582 12.0968C128.848 12.4564 129.002 12.8568 129.044 13.2982C129.088 13.7353 129.012 14.1677 128.814 14.5954C128.616 15.0231 128.334 15.3635 127.97 15.6166C127.608 15.8655 127.204 16.005 126.758 16.0351C126.317 16.0671 125.876 15.9811 125.435 15.7772ZM125.629 15.3579C125.981 15.5207 126.335 15.5895 126.691 15.5642C127.049 15.5346 127.374 15.4174 127.664 15.2124C127.956 15.0032 128.183 14.725 128.344 14.3778C128.504 14.0305 128.569 13.6799 128.537 13.3259C128.508 12.9677 128.388 12.6445 128.176 12.3564C127.967 12.0641 127.687 11.8366 127.335 11.6738C126.984 11.5111 126.627 11.4435 126.265 11.471C125.908 11.4963 125.582 11.6126 125.285 11.8198C124.995 12.0248 124.769 12.3009 124.609 12.6481C124.448 12.9954 124.382 13.3481 124.412 13.7063C124.447 14.0623 124.57 14.3864 124.779 14.6788C124.994 14.9688 125.278 15.1952 125.629 15.3579Z" fill="white"/>
<path d="M142.157 19.3674L138.001 21.5301C137.704 21.6844 137.427 21.7611 137.168 21.7603C136.915 21.7583 136.685 21.6866 136.476 21.5451C136.322 21.4403 136.181 21.291 136.053 21.0971L136.41 20.8321C136.513 20.9804 136.622 21.0939 136.738 21.1725C137.004 21.3532 137.321 21.3564 137.687 21.182L137.936 21.0636L138.409 16.8252L138.867 17.1356L138.418 20.8403L141.728 19.0767L142.157 19.3674Z" fill="white"/>
<path d="M147.026 28.6719L146.031 29.857L145.661 29.5465L146.368 28.7046L143.091 25.9554L142.38 26.7927L142.01 26.4823L143.009 25.3017L143.197 25.4592C143.456 25.6519 143.791 25.601 144.202 25.3067C144.617 25.0087 145.126 24.522 145.729 23.8465L146.793 22.6653L149.324 24.7891L146.463 28.1995L147.026 28.6719ZM146.052 24.181C145.554 24.738 145.113 25.1724 144.73 25.4841C144.353 25.7954 144.029 25.9445 143.76 25.9317L146.071 27.871L148.645 24.8038L146.849 23.2964L146.052 24.181Z" fill="white"/>
<path d="M151.519 33.4553C151.184 33.1035 150.958 32.7099 150.841 32.2745C150.73 31.8393 150.734 31.4103 150.854 30.9875C150.977 30.5681 151.209 30.1961 151.55 29.8714C151.892 29.5467 152.275 29.3336 152.701 29.2322C153.129 29.1341 153.556 29.1533 153.982 29.2895C154.414 29.426 154.797 29.6701 155.131 30.0219C155.466 30.3737 155.689 30.7639 155.8 31.1925C155.914 31.6246 155.91 32.0536 155.787 32.4796C155.667 32.9023 155.436 33.2761 155.095 33.6008C154.753 33.9255 154.367 34.1384 153.935 34.2397C153.507 34.3377 153.08 34.3186 152.654 34.1823C152.231 34.0495 151.853 33.8071 151.519 33.4553ZM151.854 33.1371C152.12 33.4178 152.424 33.612 152.765 33.7197C153.109 33.8242 153.453 33.8346 153.799 33.751C154.148 33.6641 154.461 33.4889 154.738 33.2253C155.015 32.9617 155.205 32.6595 155.306 32.3188C155.41 31.9748 155.417 31.6301 155.327 31.2845C155.24 30.9357 155.063 30.6209 154.797 30.3401C154.53 30.0594 154.223 29.8651 153.876 29.7572C153.535 29.6495 153.189 29.6374 152.837 29.7209C152.491 29.8045 152.18 29.9781 151.902 30.2418C151.625 30.5054 151.434 30.8092 151.33 31.1531C151.232 31.4972 151.226 31.8436 151.313 32.1925C151.407 32.5414 151.587 32.8563 151.854 33.1371Z" fill="white"/>
<path d="M160.668 36.0951L162.839 38.9466L162.489 39.2137L160.627 36.7688L159.352 37.74L160.323 39.0153C160.673 39.4757 160.844 39.8968 160.836 40.2786C160.83 40.6641 160.647 40.994 160.287 41.2682C159.912 41.5538 159.526 41.6429 159.127 41.5357C158.732 41.4322 158.35 41.1391 157.983 40.6564L156.77 39.0636L160.668 36.0951ZM158.307 40.4006C158.581 40.7608 158.856 40.9795 159.132 41.0568C159.411 41.1379 159.686 41.0752 159.957 40.8688C160.224 40.6653 160.354 40.4231 160.345 40.1422C160.343 39.8622 160.202 39.5384 159.922 39.1708L159.023 37.9902L157.408 39.22L158.307 40.4006Z" fill="white"/>
<path d="M168.171 46.767L163.971 49.2903L163.708 48.8522L165.646 47.6879L164.067 45.0597L162.129 46.224L161.862 45.7799L166.063 43.2567L166.329 43.7008L164.457 44.8254L166.036 47.4536L167.908 46.329L168.171 46.767Z" fill="white"/>
<path d="M167.909 56.6109C167.712 56.1675 167.631 55.721 167.665 55.2713C167.706 54.824 167.854 54.4212 168.108 54.0628C168.364 53.7087 168.708 53.4358 169.138 53.2442C169.569 53.0525 170.001 52.98 170.436 53.0266C170.872 53.0776 171.268 53.2384 171.624 53.5093C171.986 53.7825 172.265 54.1407 172.462 54.5841C172.66 55.0275 172.739 55.4698 172.701 55.911C172.664 56.3564 172.516 56.7592 172.258 57.1195C172.004 57.4778 171.661 57.7528 171.231 57.9445C170.8 58.1362 170.364 58.2075 169.924 58.1585C169.487 58.1076 169.091 57.9467 168.736 57.6759C168.382 57.4093 168.107 57.0543 167.909 56.6109ZM168.331 56.4231C168.489 56.7769 168.71 57.0616 168.995 57.277C169.284 57.4905 169.605 57.6157 169.959 57.6524C170.317 57.6873 170.67 57.6269 171.02 57.4713C171.37 57.3157 171.649 57.0942 171.858 56.807C172.072 56.5178 172.194 56.1953 172.224 55.8394C172.259 55.4817 172.198 55.1259 172.04 54.772C171.883 54.4182 171.659 54.1323 171.368 53.9145C171.083 53.6991 170.76 53.5718 170.401 53.5327C170.047 53.496 169.696 53.5554 169.346 53.711C168.996 53.8666 168.715 54.089 168.501 54.3782C168.294 54.6697 168.173 54.9943 168.138 55.3521C168.109 55.7122 168.174 56.0692 168.331 56.4231Z" fill="white"/>
<path d="M178.115 70.3627L173.367 71.5724L173.241 71.0772L177.555 69.9781L176.79 66.9731L172.475 68.0722L172.349 67.577L177.098 66.3673L178.115 70.3627Z" fill="white"/>
<path d="M179.869 78.7759C179.953 79.3955 179.871 79.9012 179.623 80.2928C179.374 80.6844 178.991 80.9153 178.473 80.9856C177.955 81.0558 177.525 80.9353 177.181 80.624C176.842 80.3121 176.631 79.8463 176.546 79.2266L176.37 77.9226L174.837 78.1305L174.767 77.6172L179.622 76.9585L179.869 78.7759ZM176.995 79.1516C177.061 79.6325 177.215 79.986 177.457 80.2121C177.704 80.4376 178.02 80.5243 178.404 80.4723C178.797 80.4189 179.08 80.251 179.254 79.9684C179.432 79.6852 179.488 79.3032 179.423 78.8222L179.248 77.5321L176.82 77.8614L176.995 79.1516Z" fill="white"/>
<path d="M175.879 88.0309C175.866 87.5457 175.961 87.102 176.165 86.6996C176.374 86.3019 176.664 85.9859 177.036 85.7518C177.408 85.5223 177.829 85.4012 178.3 85.3885C178.771 85.3758 179.199 85.4739 179.583 85.6829C179.967 85.8967 180.271 86.1965 180.496 86.5826C180.726 86.9732 180.848 87.4111 180.861 87.8962C180.874 88.3814 180.779 88.8205 180.574 89.2134C180.37 89.6111 180.08 89.9271 179.704 90.1613C179.332 90.3954 178.91 90.5189 178.439 90.5316C177.968 90.5443 177.538 90.4439 177.15 90.2303C176.766 90.0166 176.461 89.7167 176.236 89.3307C176.011 88.9493 175.892 88.516 175.879 88.0309ZM176.341 88.0184C176.351 88.4056 176.447 88.7531 176.628 89.061C176.814 89.3688 177.063 89.6071 177.376 89.7761C177.693 89.9449 178.043 90.0241 178.425 90.0138C178.808 90.0035 179.151 89.9055 179.454 89.7199C179.762 89.5342 179.997 89.2827 180.162 88.9655C180.33 88.6482 180.41 88.2959 180.399 87.9087C180.389 87.5215 180.291 87.1717 180.105 86.8593C179.924 86.5514 179.674 86.3107 179.357 86.1372C179.044 85.9683 178.697 85.889 178.314 85.8993C177.932 85.9096 177.586 86.0077 177.279 86.1934C176.976 86.3836 176.74 86.6374 176.571 86.9548C176.407 87.2767 176.33 87.6312 176.341 88.0184Z" fill="white"/>
</svg>
