<svg width="37" height="23" viewBox="0 0 37 23" fill="none" xmlns="http://www.w3.org/2000/svg">
<path d="M23 3.38236C23 3.20294 23.0713 3.03088 23.1981 2.90402C23.325 2.77716 23.4971 2.70589 23.6765 2.70589H34.5C34.6794 2.70589 34.8515 2.77716 34.9783 2.90402C35.1052 3.03088 35.1765 3.20294 35.1765 3.38236C35.1765 3.56177 35.1052 3.73383 34.9783 3.86069C34.8515 3.98756 34.6794 4.05883 34.5 4.05883H23.6765C23.4971 4.05883 23.325 3.98756 23.1981 3.86069C23.0713 3.73383 23 3.56177 23 3.38236ZM36.5294 15.5588C36.5294 15.7382 36.4581 15.9103 36.3313 16.0372C36.2044 16.164 36.0323 16.2353 35.8529 16.2353H23.0338C23.1646 17.3741 23.6132 18.4531 24.3285 19.3488C25.0438 20.2445 25.9969 20.9207 27.0785 21.3001C28.1602 21.6795 29.3268 21.7466 30.4449 21.494C31.563 21.2413 32.5873 20.679 33.4007 19.8713C33.531 19.7736 33.6921 19.7262 33.8546 19.7377C34.017 19.7493 34.1698 19.819 34.285 19.9342C34.4001 20.0493 34.4698 20.2021 34.4814 20.3645C34.4929 20.527 34.4455 20.6881 34.3478 20.8184C33.1299 22.0352 31.5278 22.7922 29.8144 22.9602C28.101 23.1282 26.3824 22.6969 24.9514 21.7398C23.5203 20.7827 22.4654 19.3589 21.9665 17.7112C21.4675 16.0635 21.5553 14.2938 22.2149 12.7035C22.8745 11.1133 24.0651 9.80098 25.5839 8.9902C27.1026 8.17942 28.8555 7.92034 30.5438 8.25711C32.2322 8.59388 33.7515 9.50567 34.843 10.8371C35.9344 12.1685 36.5304 13.8372 36.5294 15.5588ZM35.1426 14.8824C34.9844 13.387 34.2783 12.0031 33.1604 10.9973C32.0425 9.99149 30.592 9.43498 29.0882 9.43498C27.5845 9.43498 26.1339 9.99149 25.0161 10.9973C23.8982 12.0031 23.1921 13.387 23.0338 14.8824H35.1426ZM18.2647 16.5735C18.2647 18.2779 17.5876 19.9125 16.3824 21.1177C15.1772 22.3229 13.5426 23 11.8382 23H0.676471C0.497059 23 0.324997 22.9287 0.198134 22.8019C0.0712709 22.675 0 22.5029 0 22.3235V0.676474C0 0.497063 0.0712709 0.325 0.198134 0.198137C0.324997 0.0712742 0.497059 3.23339e-06 0.676471 3.23339e-06H9.80882C11.0114 -0.00127172 12.1841 0.374526 13.1619 1.07452C14.1398 1.77452 14.8735 2.76348 15.2599 3.90226C15.6464 5.04104 15.6661 6.27232 15.3162 7.42287C14.9663 8.57341 14.2645 9.58531 13.3096 10.3162C14.7199 10.6479 15.9769 11.4465 16.8763 12.5823C17.7758 13.7182 18.2651 15.1247 18.2647 16.5735ZM1.35294 10.1471H9.80882C10.975 10.1471 12.0934 9.6838 12.918 8.85919C13.7426 8.03458 14.2059 6.91618 14.2059 5.75C14.2059 4.58383 13.7426 3.46542 12.918 2.64081C12.0934 1.8162 10.975 1.35294 9.80882 1.35294H1.35294V10.1471ZM16.9118 16.5735C16.9073 15.2293 16.3713 13.9414 15.4208 12.9909C14.4703 12.0404 13.1824 11.5045 11.8382 11.5H1.35294V21.6471H11.8382C13.1824 21.6426 14.4703 21.1066 15.4208 20.1561C16.3713 19.2056 16.9073 17.9177 16.9118 16.5735Z" fill="white"/>
</svg>
