<svg width="18" height="16" viewBox="0 0 18 16" fill="none" xmlns="http://www.w3.org/2000/svg">
<path d="M1 12.0491C1 15.4415 4.67506 15.7242 6.51259 15.4415C10.329 14.5934 15.4176 9.92892 16.6897 8.23274C17.9618 6.53656 14.9935 2.72013 13.7214 1.87205C12.2666 0.902236 6.58141 0.531109 5.24046 1.87205C3.96832 3.14418 3.54427 3.56824 3.12023 6.11251C2.69618 8.65679 1 7.80869 1 12.0491Z" stroke="#DDDDDD" stroke-width="0.3"/>
<path d="M9.195 11.465L12.6 4.5H13.23L9.48 12H8.9L5.15 4.5H5.77L9.195 11.465Z" fill="white"/>
<path d="M12.26 4.5L12.93 4.5L9.38 8.885V12H8.82V8.885L5.25 4.5H5.92L9.105 8.415L12.26 4.5Z" fill="white"/>
</svg>
