<svg width="25" height="25" viewBox="0 0 25 25" fill="none" xmlns="http://www.w3.org/2000/svg">
<path d="M12.5 6.77083C11.3669 6.77083 10.2592 7.10684 9.31705 7.73637C8.37489 8.3659 7.64057 9.26067 7.20694 10.3075C6.77331 11.3544 6.65986 12.5064 6.88092 13.6177C7.10198 14.7291 7.64763 15.7499 8.44887 16.5511C9.25011 17.3524 10.2709 17.898 11.3823 18.1191C12.4936 18.3401 13.6456 18.2267 14.6925 17.7931C15.7393 17.3594 16.6341 16.6251 17.2636 15.683C17.8932 14.7408 18.2292 13.6331 18.2292 12.5C18.2292 10.9805 17.6256 9.52329 16.5511 8.44887C15.4767 7.37444 14.0195 6.77083 12.5 6.77083ZM12.5 17.1875C11.5729 17.1875 10.6666 16.9126 9.89576 16.3975C9.12491 15.8824 8.5241 15.1504 8.16931 14.2938C7.81453 13.4373 7.7217 12.4948 7.90257 11.5855C8.08344 10.6762 8.52988 9.841 9.18544 9.18544C9.841 8.52988 10.6762 8.08344 11.5855 7.90257C12.4948 7.7217 13.4373 7.81453 14.2938 8.16931C15.1504 8.5241 15.8824 9.12491 16.3975 9.89576C16.9126 10.6666 17.1875 11.5729 17.1875 12.5C17.1875 13.7432 16.6936 14.9355 15.8146 15.8146C14.9355 16.6936 13.7432 17.1875 12.5 17.1875ZM18.2292 0H6.77083C4.9751 0 3.25291 0.713353 1.98313 1.98313C0.713353 3.25291 0 4.9751 0 6.77083V18.2292C0 19.1183 0.175133 19.9988 0.515399 20.8203C0.855665 21.6417 1.3544 22.3881 1.98313 23.0169C3.25291 24.2866 4.9751 25 6.77083 25H18.2292C19.1183 25 19.9988 24.8249 20.8203 24.4846C21.6417 24.1443 22.3881 23.6456 23.0169 23.0169C23.6456 22.3881 24.1443 21.6417 24.4846 20.8203C24.8249 19.9988 25 19.1183 25 18.2292V6.77083C25 5.88167 24.8249 5.00122 24.4846 4.17975C24.1443 3.35827 23.6456 2.61186 23.0169 1.98313C22.3881 1.3544 21.6417 0.855665 20.8203 0.515399C19.9988 0.175133 19.1183 0 18.2292 0ZM23.9583 18.2292C23.9583 19.7486 23.3547 21.2059 22.2803 22.2803C21.2059 23.3547 19.7486 23.9583 18.2292 23.9583H6.77083C5.25136 23.9583 3.79413 23.3547 2.7197 22.2803C1.64527 21.2059 1.04167 19.7486 1.04167 18.2292V6.77083C1.04167 5.25136 1.64527 3.79413 2.7197 2.7197C3.79413 1.64527 5.25136 1.04167 6.77083 1.04167H18.2292C19.7486 1.04167 21.2059 1.64527 22.2803 2.7197C23.3547 3.79413 23.9583 5.25136 23.9583 6.77083V18.2292ZM20.3125 5.72917C20.3125 5.93519 20.2514 6.13658 20.1369 6.30789C20.0225 6.47919 19.8598 6.6127 19.6695 6.69154C19.4791 6.77038 19.2697 6.79101 19.0676 6.75082C18.8655 6.71062 18.6799 6.61142 18.5343 6.46574C18.3886 6.32006 18.2894 6.13445 18.2492 5.93239C18.209 5.73032 18.2296 5.52088 18.3085 5.33054C18.3873 5.1402 18.5208 4.97751 18.6921 4.86305C18.8634 4.74859 19.0648 4.6875 19.2708 4.6875C19.5471 4.6875 19.8121 4.79725 20.0074 4.9926C20.2028 5.18795 20.3125 5.4529 20.3125 5.72917Z" fill="white"/>
</svg>
