<svg width="32" height="27" viewBox="0 0 32 27" fill="none" xmlns="http://www.w3.org/2000/svg">
<path d="M29.4565 1C30.3748 1 31.0675 1.8055 30.697 3.30374L26.2023 24.4884C25.8881 25.9947 24.9779 26.3572 23.7213 25.6564L13.0001 17.7383C12.9585 17.7085 12.9246 17.6692 12.9013 17.6237C12.8779 17.5781 12.8657 17.5277 12.8657 17.4765C12.8657 17.4254 12.8779 17.3749 12.9013 17.3294C12.9246 17.2839 12.9585 17.2446 13.0001 17.2148L25.3807 6.03439C25.9445 5.53498 25.2598 5.29333 24.5188 5.74441L8.98063 15.5474C8.93351 15.5781 8.88 15.5977 8.82418 15.6047C8.76835 15.6117 8.71167 15.6058 8.65843 15.5876L2.06137 13.5014C0.595354 13.0745 0.595354 12.0676 2.39162 11.3507L28.7879 1.16916C28.9973 1.06873 29.2246 1.01121 29.4565 1Z" stroke="white" stroke-linecap="round" stroke-linejoin="round"/>
</svg>
