<svg width="507" height="262" viewBox="0 0 507 262" fill="none" xmlns="http://www.w3.org/2000/svg">
<path d="M-17.4087 260.035C5.63925 250.606 16.3485 239.144 24.9489 215.186C32.0736 195.338 33.0443 173.96 37.407 153.393C48.6871 100.216 122.151 96.9946 164.854 105.43C189.536 110.305 212.344 115.131 237.733 114.275C263.891 113.393 292.757 98.7923 315.098 86.2442C332.034 76.7327 351.019 66.1885 354.341 45.2571C355.63 37.1418 354.341 21.9261 339 21.5C328.453 21.207 308.696 26.8723 312.731 43.0146C316.977 59.9962 343.459 62.6984 357.082 62.6984C376.965 62.6984 392.984 63.5758 411.5 57C424.406 52.4164 433 49.4406 453.259 30.3073C459.954 23.9841 468.71 18.7198 476.929 14.6101C484.932 10.6085 499.182 8.0549 505.085 2.15199" stroke="white" stroke-width="3" stroke-linecap="round"/>
</svg>
