<svg width="25" height="25" viewBox="0 0 25 25" fill="none" xmlns="http://www.w3.org/2000/svg">
<path d="M12.5013 7.16162e-08C10.3131 -0.000234132 8.16319 0.573964 6.26648 1.66519C4.36976 2.75641 2.79274 4.32642 1.69308 6.21825C0.593411 8.11008 0.00963635 10.2574 0.000118282 12.4456C-0.00939978 14.6338 0.555672 16.7862 1.63884 18.6875L0.513838 22.6375C0.441727 22.894 0.439231 23.165 0.506607 23.4228C0.573982 23.6806 0.708798 23.9158 0.897191 24.1041C1.08558 24.2925 1.32076 24.4274 1.57852 24.4947C1.83629 24.5621 2.10735 24.5596 2.36384 24.4875L6.31384 23.3625C7.97718 24.3096 9.83582 24.8621 11.7464 24.9773C13.6571 25.0926 15.5686 24.7675 17.3337 24.0271C19.0989 23.2868 20.6704 22.151 21.9271 20.7073C23.1839 19.2636 24.0923 17.5506 24.5824 15.7003C25.0724 13.85 25.131 11.9118 24.7536 10.0353C24.3762 8.15881 23.5729 6.39403 22.4056 4.87706C21.2383 3.36009 19.7382 2.13145 18.0211 1.28587C16.3039 0.440289 14.4154 0.000359816 12.5013 7.16162e-08ZM12.5013 24C10.4331 24.0048 8.40238 23.4474 6.62634 22.3875C6.54881 22.348 6.46333 22.3267 6.37634 22.325H6.23884L2.08884 23.5125C2.00404 23.5353 1.91474 23.5353 1.82993 23.5126C1.74512 23.4899 1.66778 23.4452 1.6057 23.3831C1.54362 23.3211 1.49898 23.2437 1.47627 23.1589C1.45356 23.0741 1.45358 22.9848 1.47634 22.9L2.66384 18.75C2.69899 18.6193 2.68102 18.48 2.61384 18.3625C1.32033 16.1796 0.78508 13.6302 1.09148 11.1113C1.39787 8.59253 2.52871 6.24577 4.30782 4.43662C6.08694 2.62747 8.41445 1.45751 10.9278 1.109C13.4411 0.760481 15.9991 1.25298 18.2034 2.50977C20.4077 3.76656 22.1344 5.71708 23.1146 8.05748C24.0948 10.3979 24.2734 12.9968 23.6227 15.4493C22.972 17.9018 21.5284 20.0702 19.5168 21.6168C17.5053 23.1634 15.0387 24.0013 12.5013 24ZM18.8138 14.8125L16.2638 13.3625C16.0313 13.2293 15.7676 13.1603 15.4996 13.1625C15.2317 13.1647 14.9691 13.238 14.7388 13.375L13.0138 14.4125C11.9748 13.8736 11.1277 13.0266 10.5888 11.9875L11.6263 10.2625C11.7633 10.0322 11.8367 9.76964 11.8389 9.50169C11.8411 9.23374 11.772 8.97001 11.6388 8.7375L10.1888 6.1875C10.0684 5.97895 9.89538 5.80569 9.68698 5.68503C9.47858 5.56438 9.24214 5.50058 9.00134 5.5C7.94263 5.49999 6.92711 5.91971 6.17732 6.66715C5.42753 7.41459 5.00465 8.4288 5.00134 9.4875C4.9997 10.8674 5.27007 12.2342 5.79701 13.5095C6.32395 14.7849 7.09712 15.9439 8.07229 16.9202C9.04747 17.8965 10.2055 18.6711 11.4803 19.1995C12.755 19.728 14.1214 20 15.5013 20H15.5138C16.5725 19.9967 17.5867 19.5738 18.3342 18.824C19.0816 18.0742 19.5013 17.0587 19.5013 16C19.5008 15.7592 19.437 15.5228 19.3163 15.3144C19.1956 15.106 19.0224 14.9329 18.8138 14.8125ZM15.5138 19H15.5013C12.9806 18.9967 10.5643 17.993 8.78306 16.2094C7.00183 14.4259 6.00134 12.0082 6.00134 9.4875C6.00464 8.69402 6.32217 7.93416 6.88443 7.37425C7.44668 6.81435 8.20785 6.49999 9.00134 6.5C9.06534 6.50088 9.12797 6.51869 9.18286 6.55162C9.23775 6.58456 9.28294 6.63144 9.31384 6.6875L10.7763 9.2375C10.819 9.31617 10.8414 9.40425 10.8414 9.49375C10.8414 9.58325 10.819 9.67133 10.7763 9.75L9.60134 11.7C9.55805 11.7685 9.53302 11.847 9.52865 11.928C9.52427 12.009 9.54069 12.0897 9.57634 12.1625C10.2273 13.613 11.3883 14.774 12.8388 15.425C12.9117 15.4606 12.9924 15.4771 13.0733 15.4727C13.1543 15.4683 13.2328 15.4433 13.3013 15.4L15.2513 14.225C15.33 14.1823 15.4181 14.16 15.5076 14.16C15.5971 14.16 15.6852 14.1823 15.7638 14.225L18.3138 15.6875C18.3699 15.7184 18.4168 15.7636 18.4497 15.8185C18.4826 15.8734 18.5005 15.936 18.5013 16C18.5013 16.7935 18.187 17.5547 17.6271 18.1169C17.0672 18.6792 16.3073 18.9967 15.5138 19Z" fill="white"/>
</svg>
