<svg width="16" height="16" viewBox="0 0 16 16" fill="none" xmlns="http://www.w3.org/2000/svg">
<circle cx="8" cy="8" r="8" fill="#B4895C"/>
<path d="M7.22 10.98C7.22 11.212 7.244 11.38 7.292 11.484C7.34 11.588 7.428 11.66 7.556 11.7C7.684 11.732 7.892 11.748 8.18 11.748H9.488C9.944 11.748 10.308 11.608 10.58 11.328C10.852 11.048 11.032 10.66 11.12 10.164C11.12 10.14 11.14 10.132 11.18 10.14C11.228 10.14 11.252 10.152 11.252 10.176C11.18 10.84 11.144 11.388 11.144 11.82C11.144 11.884 11.132 11.932 11.108 11.964C11.084 11.988 11.036 12 10.964 12H5.42C5.404 12 5.396 11.976 5.396 11.928C5.396 11.88 5.404 11.856 5.42 11.856C5.724 11.856 5.944 11.836 6.08 11.796C6.224 11.756 6.32 11.68 6.368 11.568C6.416 11.448 6.44 11.268 6.44 11.028V5.472C6.44 5.232 6.416 5.056 6.368 4.944C6.32 4.832 6.224 4.756 6.08 4.716C5.944 4.668 5.724 4.644 5.42 4.644C5.404 4.644 5.396 4.62 5.396 4.572C5.396 4.524 5.404 4.5 5.42 4.5L6.008 4.512C6.344 4.528 6.616 4.536 6.824 4.536C7.048 4.536 7.328 4.528 7.664 4.512L8.24 4.5C8.264 4.5 8.276 4.524 8.276 4.572C8.276 4.62 8.264 4.644 8.24 4.644C7.944 4.644 7.724 4.668 7.58 4.716C7.444 4.756 7.348 4.836 7.292 4.956C7.244 5.068 7.22 5.244 7.22 5.484V10.98Z" fill="white"/>
</svg>
